<svg width="9" height="14" viewBox="0 0 9 14" fill="none" xmlns="http://www.w3.org/2000/svg">
<g clip-path="url(#clip0_2_215)">
<path d="M7.48899 5.378C7.48899 5.43867 7.46299 5.49067 7.41099 5.534L4.03099 8.927C3.98765 8.97034 3.93132 8.992 3.86199 8.992C3.79265 8.992 3.74065 8.97034 3.70599 8.927L0.325986 5.534C0.273986 5.49067 0.247986 5.43867 0.247986 5.378C0.247986 5.31734 0.273986 5.261 0.325986 5.209L0.689986 4.845C0.733319 4.793 0.785319 4.767 0.845986 4.767C0.906653 4.767 0.962986 4.793 1.01499 4.845L3.86199 7.692L6.72199 4.845C6.76532 4.793 6.82165 4.767 6.89099 4.767C6.96032 4.767 7.01232 4.793 7.04699 4.845L7.41099 5.209C7.46299 5.25234 7.48899 5.30867 7.48899 5.378Z" fill="black"/>
</g>
<defs>
<clipPath id="clip0_2_215">
<rect width="8.36" height="13" fill="white" transform="matrix(1 0 0 -1 0.240997 13.035)"/>
</clipPath>
</defs>
</svg>
