<svg width="25" height="27" viewBox="0 0 25 27" fill="none" xmlns="http://www.w3.org/2000/svg">
<path d="M14.7322 26.2627C14.4962 26.0767 14.2992 25.8464 14.1527 25.5842C14.0062 25.322 13.913 25.0336 13.8783 24.7354L12.8061 16.0022C12.7741 15.7503 12.6439 15.5213 12.4438 15.365C12.2438 15.2087 11.9901 15.1377 11.7379 15.1677L3.05947 16.2139C2.53763 16.2696 2.0124 16.1456 1.57079 15.8621C1.12903 15.5789 0.797408 15.1531 0.630351 14.6558C0.463443 14.1582 0.471353 13.6186 0.652757 13.1261C0.834148 12.6337 1.1781 12.218 1.62794 11.9476L21.3961 0.471999C21.7919 0.240896 22.248 0.133842 22.7054 0.164715C23.1627 0.195582 23.6002 0.362934 23.9614 0.645143C24.3227 0.927412 24.5909 1.31144 24.7315 1.7477C24.872 2.18396 24.8785 2.65242 24.7501 3.09242L18.3643 25.0923C18.2561 25.4519 18.0624 25.7797 17.7995 26.0475C17.5366 26.3157 17.2126 26.5159 16.8553 26.631C16.498 26.7461 16.1183 26.7727 15.7483 26.7084C15.3786 26.6443 15.0298 26.4915 14.7322 26.2627ZM23.1231 1.71813C22.9782 1.59981 22.8003 1.52914 22.6138 1.51575C22.4272 1.50237 22.241 1.54692 22.0807 1.64334L2.27916 13.1616C2.08603 13.2651 1.93686 13.4349 1.85908 13.6396C1.78133 13.8444 1.78013 14.0704 1.85577 14.276C1.91743 14.4854 2.05366 14.6651 2.2386 14.7812C2.42371 14.8971 2.64468 14.9416 2.86024 14.9057L11.5934 13.8335C12.1987 13.7603 12.8085 13.9298 13.289 14.3053C13.7695 14.6806 14.0815 15.2312 14.157 15.8364L15.2293 24.5695C15.2466 24.7873 15.3432 24.9909 15.5004 25.1425C15.658 25.294 15.8652 25.3827 16.0834 25.3918C16.3011 25.4154 16.5202 25.3596 16.7 25.2346C16.8797 25.1096 17.0085 24.9238 17.0621 24.7113L23.4478 2.71148C23.5027 2.53263 23.5009 2.34129 23.4427 2.16336C23.3846 1.98558 23.273 1.83014 23.1231 1.71813Z" fill="white"/>
</svg>
