<svg width="22" height="22" viewBox="0 0 22 22" fill="none" xmlns="http://www.w3.org/2000/svg">
<path d="M18.8776 13.8068C17.803 12.7843 16.1146 12.7867 15.0428 13.8122L13.3351 15.2511C10.5199 14.0861 8.28479 11.8475 7.12426 9.0304L8.55781 7.32806C9.58033 6.25443 9.58269 4.568 8.56318 3.49151C8.56318 3.49151 6.90385 1.3385 6.87607 1.31072C5.81241 0.240155 4.0863 0.221801 3.00011 1.26951L1.96974 2.16548C-4.94624 9.52139 12.9006 27.3763 20.2475 20.3537L21.0646 19.4129C22.1451 18.3289 22.1451 16.5752 21.0646 15.4912C21.0351 15.467 18.8776 13.8068 18.8776 13.8068Z" fill="white"/>
</svg>
