<svg width="27" height="27" viewBox="0 0 27 27" fill="none" xmlns="http://www.w3.org/2000/svg">
<path d="M13.4998 15.3889C11.9779 15.3889 10.4903 14.9377 9.22495 14.0922C7.9596 13.2467 6.97339 12.045 6.391 10.639C5.80864 9.23303 5.65626 7.68594 5.95313 6.19336C6.25002 4.70078 6.98286 3.32976 8.05896 2.25366C9.13504 1.17757 10.5061 0.444744 11.9987 0.147851C13.4912 -0.149042 15.0383 0.00333387 16.4443 0.58571C17.8503 1.16809 19.052 2.15431 19.8975 3.41965C20.743 4.68502 21.1942 6.17264 21.1942 7.69447C21.1905 9.73403 20.3787 11.689 18.9365 13.1312C17.4943 14.5734 15.5393 15.3852 13.4998 15.3889ZM13.4998 1.399C12.2546 1.399 11.0375 1.76822 10.0022 2.45998C8.9669 3.15174 8.15999 4.13495 7.68351 5.2853C7.20702 6.43565 7.08235 7.70145 7.32525 8.92266C7.56818 10.1439 8.16774 11.2656 9.04818 12.1461C9.92862 13.0265 11.0504 13.6261 12.2716 13.869C13.4928 14.1119 14.7586 13.9872 15.9089 13.5107C17.0593 13.0342 18.0425 12.2273 18.7343 11.1921C19.426 10.1568 19.7952 8.9396 19.7952 7.69447C19.7915 6.02594 19.1271 4.42681 17.9472 3.24699C16.7674 2.06715 15.1683 1.40269 13.4998 1.399Z" fill="white"/>
<path d="M26.0911 26.5806C25.9055 26.5806 25.7276 26.5069 25.5964 26.3757C25.4652 26.2448 25.3915 26.0668 25.3915 25.8812C25.3915 23.0984 24.286 20.4296 22.3183 18.4619C20.3506 16.4942 17.6818 15.3887 14.899 15.3887H12.101C9.31827 15.3887 6.64948 16.4942 4.68175 18.4619C2.71405 20.4296 1.60859 23.0984 1.60859 25.8812C1.60859 26.0668 1.53489 26.2448 1.40371 26.3757C1.27253 26.5069 1.09461 26.5806 0.909092 26.5806C0.723575 26.5806 0.545654 26.5069 0.414473 26.3757C0.283292 26.2448 0.209595 26.0668 0.209595 25.8812C0.213297 22.7285 1.46733 19.706 3.69662 17.4768C5.92589 15.2475 8.94838 13.9934 12.101 13.9897H14.899C18.0517 13.9934 21.0742 15.2475 23.3035 17.4768C25.5327 19.706 26.7869 22.7285 26.7905 25.8812C26.7905 26.0668 26.7168 26.2448 26.5856 26.3757C26.4544 26.5069 26.2765 26.5806 26.0911 26.5806Z" fill="white"/>
<path d="M13.4999 26.5809C13.4081 26.582 13.3172 26.5637 13.2328 26.5278C13.1485 26.4916 13.0727 26.4382 13.0102 26.3709L11.6112 24.972C11.534 24.8963 11.475 24.8041 11.4387 24.7023C11.4023 24.6006 11.3896 24.4918 11.4014 24.3844L12.8004 14.5914C12.8328 14.4299 12.9203 14.2845 13.0478 14.1801C13.1753 14.0756 13.335 14.0186 13.4999 14.0186C13.6647 14.0186 13.8244 14.0756 13.9519 14.1801C14.0794 14.2845 14.1669 14.4299 14.1994 14.5914L15.5983 24.3844C15.6102 24.4918 15.5974 24.6006 15.5611 24.7023C15.5247 24.8041 15.4657 24.8963 15.3885 24.972L13.9895 26.3709C13.927 26.4382 13.8512 26.4916 13.7669 26.5278C13.6826 26.5637 13.5916 26.582 13.4999 26.5809ZM12.8423 24.2305L13.4999 24.8881L14.1574 24.2305L13.4999 19.6418L12.8423 24.2305Z" fill="white"/>
</svg>
