<svg width="30" height="21" viewBox="0 0 30 21" fill="none" xmlns="http://www.w3.org/2000/svg">
<path d="M29.0761 11.7967C29.1392 13.001 28.9523 14.2052 28.5288 15.3238C28.1054 16.4423 27.4557 17.4477 26.6261 18.2683C23.4572 21.1758 18.4251 20.6131 18.2197 20.5818H8.27292C6.29238 20.5974 2.59533 19.6126 2.59533 15.7985C2.59533 11.9843 6.29238 11.0151 8.27292 11.0151H18.3078C18.5023 11.0151 18.6889 11.0975 18.8265 11.2441C18.964 11.3906 19.0413 11.5894 19.0413 11.7967C19.0413 12.004 18.964 12.2028 18.8265 12.3494C18.6889 12.496 18.5023 12.5783 18.3078 12.5783H8.27292C8.09687 12.5783 3.98905 12.5783 3.98905 15.7985C3.98905 19.0186 8.09687 19.0342 8.27292 19.0342H18.3078C18.4398 19.0342 22.9877 19.6126 25.6432 17.0959C26.3143 16.4193 26.8381 15.5942 27.1778 14.6787C27.5174 13.7631 27.6647 12.7794 27.6091 11.7967C27.6665 10.8152 27.5216 9.83223 27.1845 8.91677C26.8474 8.00131 26.3263 7.17558 25.6579 6.49753C22.9877 3.98081 18.4398 4.54356 18.3958 4.5592L3.25551 4.5592C3.06097 4.5592 2.87439 4.47684 2.73682 4.33028C2.59925 4.18368 2.52197 3.98491 2.52197 3.77762C2.52573 3.57156 2.60422 3.37508 2.74098 3.22938C2.87774 3.08365 3.06214 3.00003 3.25551 2.99601L18.3078 2.99601C18.4251 2.99601 23.4572 2.33948 26.6261 5.32514C27.4557 6.14574 28.1054 7.15111 28.5288 8.26965C28.9523 9.38821 29.1392 10.5925 29.0761 11.7967Z" fill="white"/>
<path d="M5.07664 6.76019L4.71765 7.12851C4.56565 7.28447 4.31985 7.28447 4.16946 7.12851L1.02587 3.90487C0.873864 3.74892 0.873864 3.49673 1.02587 3.34244L4.16946 0.117139C4.32147 -0.0388171 4.56726 -0.0388171 4.71765 0.117139L5.07664 0.48546C5.23027 0.643075 5.22703 0.900236 5.07017 1.05453L3.1216 2.95918H7.76907C7.98414 2.95918 8.15717 3.13671 8.15717 3.35737V3.88828C8.15717 4.10894 7.98414 4.28647 7.76907 4.28647H3.1216L5.07017 6.19112C5.22865 6.34541 5.23188 6.60258 5.07664 6.76019Z" fill="white"/>
</svg>
